<?xml version="1.0" standalone="no"?>
<!DOCTYPE svg PUBLIC "-//W3C//DTD SVG 20010904//EN"
 "http://www.w3.org/TR/2001/REC-SVG-20010904/DTD/svg10.dtd">
<svg version="1.0" xmlns="http://www.w3.org/2000/svg"
 width="140.000000pt" height="186.000000pt" viewBox="0 0 140.000000 186.000000"
 preserveAspectRatio="xMidYMid meet">

<g transform="translate(0.000000,186.000000) scale(0.100000,-0.100000)"
fill="#FFFFFF" stroke="none">
<path d="M55 1848 c-47 -25 -45 7 -45 -909 l0 -868 24 -28 24 -28 624 -3 c342
-1 633 0 646 3 12 3 31 14 42 25 20 20 20 37 20 899 l0 880 -26 20 c-26 21
-34 21 -658 21 -437 -1 -637 -4 -651 -12z m410 -55 c18 -18 35 -56 35 -79 0
-11 -4 -12 -19 -4 -11 5 -53 10 -93 10 -78 0 -98 9 -98 45 0 35 20 45 91 45
50 0 72 -4 84 -17z m403 -10 c-26 -28 -48 -72 -48 -98 0 -7 16 -22 35 -34 21
-12 42 -36 51 -56 8 -19 19 -35 25 -35 6 0 8 -26 3 -74 -4 -47 -3 -80 4 -92
10 -16 11 -14 12 17 0 40 29 84 60 94 14 4 20 15 20 36 0 16 1 29 3 29 1 0 29
-24 61 -54 47 -45 59 -61 63 -95 3 -22 12 -46 19 -52 8 -6 14 -29 14 -49 0
-55 38 -84 103 -77 46 4 47 4 47 -24 0 -22 -6 -30 -26 -35 -39 -10 -93 2 -136
31 -73 48 -84 9 -21 -73 32 -42 33 -47 33 -134 0 -75 3 -93 18 -106 11 -10 27
-43 37 -74 l19 -57 -27 -68 c-22 -57 -25 -78 -20 -125 l6 -58 58 0 c57 0 59
-1 59 -26 l0 -27 -68 6 c-52 5 -73 3 -88 -8 -18 -14 -18 -14 4 -15 12 0 22 -3
22 -8 0 -4 -47 -54 -104 -111 l-105 -104 -25 17 c-14 9 -26 21 -26 27 0 6 39
48 86 93 48 46 82 86 76 90 -5 3 -16 -2 -23 -11 -18 -21 -87 -53 -118 -53 -21
0 -23 -4 -18 -29 7 -33 -14 -58 -45 -53 -12 2 -21 -5 -28 -23 -5 -14 -23 -34
-40 -43 l-29 -17 77 -77 77 -78 -40 0 c-33 0 -46 7 -85 45 -49 48 -78 52 -95
12 -7 -15 -21 -23 -42 -25 -17 -2 -37 -10 -43 -18 -7 -8 -21 -14 -31 -14 -23
0 -26 32 -4 50 21 18 19 40 -4 40 -23 0 -52 36 -44 55 2 8 -8 20 -25 29 -17 9
-33 25 -37 35 -3 11 -21 29 -40 40 -19 11 -37 31 -40 44 -4 16 -19 28 -43 37
-20 7 -49 21 -64 31 -14 11 -38 19 -53 19 -27 0 -27 -1 -11 -22 96 -135 144
-230 153 -307 l6 -51 -101 0 -102 0 7 188 6 187 -26 38 c-23 34 -25 45 -20 85
4 26 7 56 6 67 -1 22 -39 140 -54 167 -16 32 -10 62 28 123 48 78 62 159 32
191 -41 44 1 96 65 80 17 -4 26 -1 30 11 7 16 -9 33 -31 33 -17 0 -53 50 -53
74 0 12 7 31 15 43 8 11 17 39 21 62 12 77 91 114 163 76 33 -16 55 -64 49
-100 -3 -15 -1 -25 6 -25 20 0 36 23 36 50 0 14 6 35 14 45 12 17 11 22 -15
46 -29 27 -36 58 -23 105 5 21 69 64 94 64 7 0 21 11 32 25 27 34 89 52 125
36 24 -11 29 -10 38 4 32 54 47 65 88 65 l41 0 -26 -27z m135 -142 c-6 -9 -74
29 -80 45 -4 10 7 27 33 49 l39 34 6 -62 c3 -34 4 -64 2 -66z m-906 -71 c-3
-21 -12 -49 -21 -62 -15 -21 -16 -19 -16 50 0 71 1 72 21 61 18 -9 20 -17 16
-49z m251 35 c18 -18 -65 -85 -104 -85 -27 0 -30 11 -13 43 24 47 42 59 78 53
18 -3 36 -8 39 -11z m950 -180 c23 0 42 -3 42 -8 0 -18 -47 -77 -62 -77 -15 0
-78 74 -78 92 0 5 12 5 28 1 15 -5 46 -8 70 -8z m-1152 -778 c4 -25 3 -66 0
-91 -6 -41 -12 -49 -47 -66 l-39 -20 0 113 0 113 33 9 c38 12 45 5 53 -58z m4
-199 c-12 -18 -37 -64 -56 -103 l-35 -70 3 80 3 80 45 23 c59 30 66 28 40 -10z"/>
<path d="M636 1678 c-9 -12 -16 -28 -16 -35 0 -8 -14 -13 -38 -13 -45 0 -75
-26 -70 -61 5 -33 31 -46 68 -32 32 12 40 4 15 -17 -8 -7 -15 -19 -15 -27 0
-8 -9 -27 -21 -41 -15 -19 -19 -35 -15 -57 5 -27 2 -32 -34 -52 -48 -28 -61
-28 -91 -4 -21 16 -22 22 -11 45 25 56 -32 106 -87 75 -21 -12 -26 -22 -26
-54 0 -27 -6 -44 -18 -53 -11 -9 -17 -24 -15 -40 3 -23 8 -27 38 -27 32 -1 35
-4 38 -34 5 -48 -3 -72 -38 -116 -29 -37 -30 -41 -30 -141 0 -93 2 -105 20
-116 25 -16 26 -28 1 -21 -29 7 -63 -15 -56 -37 4 -13 1 -17 -12 -16 -27 2
-32 -74 -5 -81 14 -3 18 -11 14 -29 -3 -17 2 -30 14 -39 16 -11 17 -17 7 -33
-6 -10 -14 -40 -18 -65 -7 -43 -5 -47 19 -58 20 -9 29 -9 41 1 13 11 21 8 48
-18 24 -23 52 -37 105 -49 64 -16 70 -20 52 -31 -37 -23 -19 -52 31 -52 13 0
19 -7 19 -23 0 -26 28 -57 51 -57 8 0 25 7 37 16 33 23 35 13 7 -29 -30 -44
-31 -57 -5 -57 12 0 26 -12 35 -30 19 -37 28 -38 43 -5 7 15 20 25 32 25 27 0
25 18 -6 64 -23 33 -24 38 -8 31 60 -25 104 -13 104 30 0 16 8 24 32 31 42 12
47 38 12 57 -27 14 -27 14 32 22 77 9 129 31 158 65 21 26 25 27 39 12 14 -13
21 -14 43 -3 25 11 26 14 19 59 -4 26 -14 55 -23 65 -14 16 -14 19 -2 27 8 6
19 10 24 10 4 0 6 13 4 29 -3 22 0 31 14 34 27 7 26 77 -2 84 -11 3 -17 9 -14
15 11 17 -19 38 -55 38 -35 0 -36 0 -11 13 24 12 25 17 28 119 2 99 1 108 -21
134 -37 45 -47 69 -47 117 0 42 1 44 25 39 27 -5 55 12 55 34 0 7 -9 22 -21
32 -15 14 -18 26 -13 46 9 37 -18 76 -54 76 -55 0 -89 -48 -63 -89 13 -20 3
-40 -30 -57 -32 -16 -63 -12 -121 17 -21 11 -46 19 -58 19 -21 0 -27 14 -10
25 18 11 11 91 -10 118 -18 23 -18 26 -3 31 9 4 21 2 27 -4 19 -19 56 -11 68
15 9 19 8 29 -6 50 -16 24 -30 29 -68 26 -9 -1 -19 8 -23 21 -13 40 -36 58
-76 58 -28 0 -42 -6 -53 -22z m82 -4 c12 -8 22 -20 22 -27 0 -8 -3 -8 -12 1
-7 7 -24 12 -38 12 -14 0 -31 -5 -38 -12 -13 -13 -16 0 -4 18 6 10 27 21 42
23 3 1 16 -6 28 -15z m-119 -64 c25 -13 35 -40 15 -40 -10 0 -14 6 -10 15 9
25 -39 18 -57 -7 -16 -23 -16 -23 -16 -2 -1 12 8 25 22 32 28 14 25 14 46 2z
m225 -13 c19 -14 19 -49 1 -47 -5 1 -9 8 -7 16 4 19 -34 18 -42 -1 -6 -17 -26
-21 -26 -5 0 12 37 50 48 50 5 0 16 -6 26 -13z m-164 -117 c11 -22 19 -40 16
-40 -2 0 -20 7 -40 15 -37 16 -45 32 -24 53 19 19 26 15 48 -28z m64 31 c3 -4
-4 -17 -15 -27 -17 -16 -22 -16 -29 -4 -16 26 -11 40 14 40 14 0 27 -4 30 -9z
m33 -28 c5 -14 -45 -46 -58 -37 -7 4 -2 15 12 30 23 24 40 27 46 7z m-148
-117 c12 -14 11 -16 -7 -16 -30 0 -49 53 -32 88 l14 27 6 -42 c3 -23 12 -48
19 -57z m166 74 c0 -14 -49 -32 -60 -22 -8 8 37 42 50 38 6 -1 10 -9 10 -16z
m-421 -8 c-12 -9 -25 -26 -29 -37 -8 -19 -9 -19 -13 3 -5 29 14 52 42 52 l21
0 -21 -18z m739 -3 c6 -9 7 -25 3 -35 -8 -18 -8 -18 -16 2 -5 12 -19 29 -32
39 l-23 16 29 -3 c16 -2 34 -10 39 -19z m-459 -21 c3 -17 3 -34 0 -37 -8 -9
-34 30 -34 51 0 31 27 20 34 -14z m28 7 c0 -5 -5 -11 -11 -13 -6 -2 -11 4 -11
13 0 9 5 15 11 13 6 -2 11 -8 11 -13z m98 -13 c0 -13 -12 -22 -22 -16 -10 6
-1 24 13 24 5 0 9 -4 9 -8z m-60 -93 l0 -80 -30 16 c-16 9 -30 18 -30 21 0 2
12 27 26 55 14 28 23 56 21 62 -2 6 -14 -15 -26 -47 -22 -53 -42 -68 -49 -35
-3 18 66 101 79 93 5 -3 9 -41 9 -85z m65 16 c11 -27 10 -32 -13 -57 -14 -16
-29 -28 -34 -28 -4 0 -8 34 -8 77 l0 76 21 -19 c11 -10 27 -32 34 -49z m-455
6 c0 -5 -7 -11 -15 -15 -15 -5 -20 5 -8 17 9 10 23 9 23 -2z m280 -1 c12 -8
12 -10 -5 -10 -11 0 -27 5 -35 10 -12 8 -12 10 5 10 11 0 27 -5 35 -10z m230
6 c0 -2 -7 -6 -15 -10 -8 -3 -15 -1 -15 4 0 6 7 10 15 10 8 0 15 -2 15 -4z
m305 -7 c4 -6 5 -12 2 -15 -7 -7 -37 7 -37 17 0 13 27 11 35 -2z m-693 -26
c37 -5 48 -10 50 -26 5 -31 53 -43 94 -24 22 11 35 13 40 6 10 -17 -3 -23 -65
-27 -41 -3 -67 1 -90 13 -62 32 -61 39 -61 -326 l0 -331 33 -32 c24 -25 47
-36 93 -44 62 -13 150 -60 160 -87 10 -24 27 -18 67 24 29 30 51 42 104 56 37
10 80 24 95 32 58 28 58 28 58 386 0 260 -3 329 -13 333 -7 2 -30 -2 -50 -11
-41 -17 -104 -20 -141 -5 -39 15 -32 30 8 18 29 -9 40 -8 63 8 15 10 51 24 78
30 28 6 62 14 76 18 26 8 27 7 19 -34 -9 -48 1 -99 25 -136 11 -18 14 -29 7
-33 -7 -4 -13 -69 -16 -161 -2 -85 -6 -171 -8 -190 -2 -30 0 -35 19 -38 19 -3
21 -7 13 -28 -6 -14 -10 -54 -10 -89 0 -53 -4 -68 -25 -93 -26 -31 -98 -62
-144 -62 -50 0 -141 -33 -177 -64 l-36 -31 -33 30 c-35 33 -87 53 -176 65 -69
10 -126 35 -142 64 -6 11 -14 55 -18 96 -3 41 -10 83 -14 93 -5 13 -2 17 14
17 25 0 38 39 22 68 -7 12 -11 80 -11 164 0 88 -4 148 -11 155 -7 7 -4 21 12
47 17 30 21 48 17 102 -3 55 -2 64 12 59 8 -4 36 -9 62 -12z m439 7 c16 0 9
-19 -11 -30 -25 -13 -60 -4 -60 15 0 15 27 25 48 19 8 -2 18 -4 23 -4z m-297
-6 c23 -9 20 -19 -10 -33 -30 -13 -64 -6 -64 14 0 21 41 32 74 19z m101 -110
c-29 -23 -81 -44 -107 -44 -13 0 -36 7 -52 15 -39 21 -55 19 -61 -7 -3 -13 -4
-139 -2 -281 l2 -259 26 -22 c14 -12 50 -28 80 -34 65 -15 134 -52 134 -72 0
-8 5 -22 10 -30 8 -13 7 -13 -8 -1 -10 7 -16 21 -15 30 2 9 -4 16 -12 16 -8 0
-22 5 -30 10 -8 6 -48 21 -89 35 -116 39 -112 27 -112 338 -1 143 2 270 6 281
8 27 32 33 65 16 40 -20 89 -19 130 4 42 24 63 26 35 5z m92 -4 c46 -24 91
-25 138 -3 57 27 63 14 66 -162 1 -82 2 -208 1 -278 l-2 -129 -30 -28 c-20
-18 -51 -33 -88 -42 -41 -9 -66 -22 -90 -45 -20 -21 -38 -30 -45 -26 -8 5 -4
9 11 11 12 2 22 8 22 14 0 5 -7 8 -15 4 -28 -10 -15 2 23 22 20 10 63 27 93
36 109 31 104 15 106 313 2 142 1 268 -2 281 -6 26 -22 28 -69 6 -41 -20 -85
-14 -141 21 -48 29 -31 33 22 5z m33 -78 c3 -2 -9 0 -25 4 -44 10 -86 34 -80
44 4 7 82 -28 105 -48z m-213 -74 c7 -16 10 -28 5 -28 -11 0 -32 46 -31 68 0
14 2 14 6 2 3 -8 12 -27 20 -42z m233 1 c-7 -16 -16 -29 -20 -29 -5 0 -1 18 8
40 9 21 19 35 21 29 1 -5 -2 -23 -9 -40z m-512 11 c-7 -11 -16 -20 -20 -20 -4
0 -6 9 -5 20 1 12 8 20 19 20 16 0 16 -3 6 -20z m412 -14 c-6 -6 -5 -14 1 -23
9 -10 4 -13 -27 -13 -35 1 -37 2 -21 14 13 10 14 15 5 18 -9 3 -9 8 2 20 11
12 19 13 32 4 11 -7 14 -14 8 -20z m400 7 c0 -29 -2 -29 -19 5 -10 18 -9 22 4
22 10 0 15 -9 15 -27z m-3 -65 c-3 -8 -6 -5 -6 6 -1 11 2 17 5 13 3 -3 4 -12
1 -19z m-397 -28 c0 -25 -4 -30 -25 -30 -21 0 -25 5 -25 30 0 25 4 30 25 30
21 0 25 -5 25 -30z m-62 -12 c-3 -7 -11 -13 -18 -13 -7 0 -15 6 -17 13 -3 7 4
12 17 12 13 0 20 -5 18 -12z m110 0 c-6 -18 -28 -21 -28 -4 0 9 7 16 16 16 9
0 14 -5 12 -12z m-148 -38 c0 -14 27 -13 32 1 3 8 11 8 27 -2 19 -11 25 -11
28 -1 6 14 33 16 33 2 0 -5 7 -10 15 -10 8 0 15 5 15 10 0 6 5 10 10 10 6 0
10 -9 10 -20 0 -19 -7 -20 -95 -20 -88 0 -95 1 -95 20 0 11 5 20 10 20 6 0 10
-4 10 -10z m130 -111 c0 -52 -2 -60 -17 -57 -10 2 -19 14 -21 26 -5 30 -36 25
-40 -6 -6 -40 -29 -24 -36 24 -10 77 -12 74 54 74 l60 0 0 -61z m-450 41 c0
-5 -4 -10 -9 -10 -5 0 -16 -3 -25 -6 -11 -4 -16 -1 -16 10 0 10 9 16 25 16 14
0 25 -4 25 -10z m858 -1 c-2 -6 -7 -10 -11 -10 -4 1 -14 1 -22 1 -8 0 -15 5
-15 10 0 6 12 10 26 10 14 0 24 -5 22 -11z m-868 -79 c0 -5 -4 -10 -10 -10 -5
0 -10 5 -10 10 0 6 5 10 10 10 6 0 10 -4 10 -10z m850 0 c0 -5 -4 -10 -10 -10
-5 0 -10 5 -10 10 0 6 5 10 10 10 6 0 10 -4 10 -10z m-510 -86 c29 -47 57 -83
63 -81 7 2 31 39 54 83 23 43 46 80 51 82 13 4 35 -19 74 -75 30 -44 30 -47
13 -60 -11 -7 -26 -13 -34 -13 -34 0 -92 -22 -118 -45 -28 -23 -28 -23 -49 -4
-12 11 -59 32 -105 47 -101 32 -108 47 -54 110 20 23 40 42 45 42 5 0 32 -38
60 -86z m530 21 c0 -8 -7 -15 -15 -15 -13 0 -14 3 -3 15 16 18 18 18 18 0z
m-890 -5 c8 -5 12 -11 9 -14 -3 -3 -14 1 -25 9 -21 16 -8 20 16 5z m30 -46 c0
-8 -5 -12 -10 -9 -6 4 -8 11 -5 16 9 14 15 11 15 -7z m825 7 c3 -5 1 -12 -5
-16 -5 -3 -10 1 -10 9 0 18 6 21 15 7z m-845 -41 c0 -5 -5 -10 -11 -10 -5 0
-7 5 -4 10 3 6 8 10 11 10 2 0 4 -4 4 -10z m870 0 c0 -5 -7 -10 -16 -10 -8 0
-12 5 -9 10 3 6 10 10 16 10 5 0 9 -4 9 -10z m-866 -49 c3 -5 -3 -11 -14 -14
-20 -5 -26 3 -13 16 9 10 21 9 27 -2z m870 0 c3 -5 -3 -11 -14 -14 -20 -5 -26
3 -13 16 9 10 21 9 27 -2z m-566 -153 c-6 -19 -47 -36 -69 -31 -26 7 -24 22 4
33 33 13 69 12 65 -2z m283 -9 c11 -5 17 -14 14 -20 -10 -16 -52 -10 -76 11
l-24 19 33 1 c18 0 42 -5 53 -11z m-216 -19 c10 -11 15 -23 12 -27 -8 -7 -47
25 -47 39 0 14 16 9 35 -12z m115 10 c0 -14 -37 -50 -52 -50 -6 0 1 14 17 30
31 33 35 35 35 20z m-170 -50 c-8 -5 -11 -12 -7 -17 4 -4 17 -1 28 6 28 17 40
3 14 -15 -28 -21 -59 -14 -63 14 -3 17 1 22 20 22 18 0 20 -2 8 -10z m217 -6
c3 -8 -1 -22 -9 -31 -14 -13 -19 -13 -48 2 -25 13 -30 19 -19 26 9 5 17 3 22
-6 9 -17 37 -20 37 -5 0 6 -5 10 -11 10 -5 0 -7 5 -4 10 9 15 25 12 32 -6z
m-115 -66 c-13 -13 -26 8 -17 30 6 16 7 16 17 -1 7 -13 7 -22 0 -29z m30 -23
c12 -16 9 -25 -6 -25 -8 0 -17 -8 -21 -17 -6 -17 -7 -17 -16 0 -6 9 -19 17
-30 17 -16 0 -18 4 -10 18 10 19 71 24 83 7z"/>
<path d="M690 954 c0 -8 5 -12 10 -9 6 4 8 11 5 16 -9 14 -15 11 -15 -7z"/>
<path d="M652 809 c2 -6 8 -10 13 -10 5 0 11 4 13 10 2 6 -4 11 -13 11 -9 0
-15 -5 -13 -11z"/>
<path d="M702 809 c2 -6 8 -10 13 -10 5 0 11 4 13 10 2 6 -4 11 -13 11 -9 0
-15 -5 -13 -11z"/>
<path d="M853 1482 c-15 -10 -20 -79 -6 -93 20 -20 28 -5 23 48 -3 36 -9 50
-17 45z"/>
</g>
</svg>
