<svg width="14" height="15" viewBox="0 0 14 15" fill="none" xmlns="http://www.w3.org/2000/svg">
<path d="M11.3756 6.41457C11.3756 7.66947 10.9681 8.82867 10.2818 9.76916L13.7436 13.2331C14.0855 13.5749 14.0855 14.1298 13.7436 14.4716C13.4018 14.8133 12.8467 14.8133 12.5049 14.4716L9.04302 11.0076C8.10235 11.6966 6.94292 12.1012 5.68778 12.1012C2.54583 12.1012 0 9.55591 0 6.41457C0 3.27324 2.54583 0.727905 5.68778 0.727905C8.82973 0.727905 11.3756 3.27324 11.3756 6.41457ZM5.68778 10.3515C6.20488 10.3515 6.71692 10.2497 7.19467 10.0518C7.67241 9.85397 8.1065 9.56397 8.47215 9.1984C8.8378 8.83282 9.12784 8.39882 9.32573 7.92117C9.52362 7.44352 9.62547 6.93158 9.62547 6.41457C9.62547 5.89757 9.52362 5.38563 9.32573 4.90798C9.12784 4.43033 8.8378 3.99632 8.47215 3.63075C8.1065 3.26517 7.67241 2.97518 7.19467 2.77733C6.71692 2.57948 6.20488 2.47765 5.68778 2.47765C5.17067 2.47765 4.65863 2.57948 4.18089 2.77733C3.70315 2.97518 3.26906 3.26517 2.90341 3.63075C2.53776 3.99632 2.24771 4.43033 2.04982 4.90798C1.85194 5.38563 1.75009 5.89757 1.75009 6.41457C1.75009 6.93158 1.85194 7.44352 2.04982 7.92117C2.24771 8.39882 2.53776 8.83282 2.90341 9.1984C3.26906 9.56397 3.70315 9.85397 4.18089 10.0518C4.65863 10.2497 5.17067 10.3515 5.68778 10.3515Z" fill="#6A92E1"/>
</svg>
